<!DOCTYPE svg PUBLIC "-//W3C//DTD SVG 1.1//EN" "http://www.w3.org/Graphics/SVG/1.1/DTD/svg11.dtd">
<!-- Uploaded to: SVG Repo, www.svgrepo.com, Transformed by: SVG Repo Mixer Tools -->
<svg fill="#ffd34e" height="800px" width="800px" version="1.1" id="Layer_1" xmlns="http://www.w3.org/2000/svg" xmlns:xlink="http://www.w3.org/1999/xlink" viewBox="0 0 512.04 512.04" xml:space="preserve" stroke="#ffd34e" stroke-width="0.0051204" transform="matrix(1, 0, 0, -1, 0, 0)">
<g id="SVGRepo_bgCarrier" stroke-width="0"/>
<g id="SVGRepo_tracerCarrier" stroke-linecap="round" stroke-linejoin="round"/>
<g id="SVGRepo_iconCarrier"> <g> <g> <path d="M508.933,146.807l-42.347-42.347c-4.267-4.053-10.88-4.053-15.147,0L256.027,300.193L60.507,104.46 c-4.267-4.053-10.88-4.053-15.147,0L3.12,146.807c-4.16,4.16-4.16,10.88,0,15.04L248.453,407.5c4.16,4.16,10.88,4.16,15.04,0 l245.333-245.653C513.093,157.687,513.093,150.967,508.933,146.807z M256.027,384.887L25.733,154.38l27.2-27.307l195.52,195.733 c4.267,4.053,10.88,4.053,15.147,0l195.52-195.733l27.2,27.307L256.027,384.887z"/> </g> </g> </g>
</svg>